<svg xmlns="http://www.w3.org/2000/svg" viewBox="0 0 1100 560" role="img" aria-label="Grid, bloques e hilos CUDA">
  <rect width="1100" height="560" rx="24" fill="#f8fafc"/>

  <text x="50" y="60" font-family="Segoe UI, Arial" font-size="34" font-weight="700" fill="#0f172a">
    Modelo de ejecución CUDA
  </text>

  <rect x="70" y="100" width="960" height="390" rx="24" fill="#eef2ff" stroke="#4f46e5" stroke-width="3"/>
  <text x="100" y="145" font-family="Segoe UI, Arial" font-size="28" font-weight="700" fill="#3730a3">
    Grid
  </text>

  <g font-family="Segoe UI, Arial">
    <g transform="translate(120,180)">
      <rect width="240" height="210" rx="18" fill="#dbeafe" stroke="#2563eb" stroke-width="3"/>
      <text x="25" y="35" font-size="22" font-weight="700" fill="#1d4ed8">Bloque 0</text>
      <g fill="#ffffff" stroke="#2563eb">
        <rect x="25" y="65" width="40" height="40" rx="6"/>
        <rect x="75" y="65" width="40" height="40" rx="6"/>
        <rect x="125" y="65" width="40" height="40" rx="6"/>
        <rect x="175" y="65" width="40" height="40" rx="6"/>
        <rect x="25" y="120" width="40" height="40" rx="6"/>
        <rect x="75" y="120" width="40" height="40" rx="6"/>
        <rect x="125" y="120" width="40" height="40" rx="6"/>
        <rect x="175" y="120" width="40" height="40" rx="6"/>
      </g>
      <text x="40" y="92" font-size="13" fill="#0f172a">t0</text>
      <text x="90" y="92" font-size="13" fill="#0f172a">t1</text>
      <text x="140" y="92" font-size="13" fill="#0f172a">t2</text>
      <text x="190" y="92" font-size="13" fill="#0f172a">t3</text>
    </g>

    <g transform="translate(430,180)">
      <rect width="240" height="210" rx="18" fill="#dcfce7" stroke="#16a34a" stroke-width="3"/>
      <text x="25" y="35" font-size="22" font-weight="700" fill="#15803d">Bloque 1</text>
      <g fill="#ffffff" stroke="#16a34a">
        <rect x="25" y="65" width="40" height="40" rx="6"/>
        <rect x="75" y="65" width="40" height="40" rx="6"/>
        <rect x="125" y="65" width="40" height="40" rx="6"/>
        <rect x="175" y="65" width="40" height="40" rx="6"/>
        <rect x="25" y="120" width="40" height="40" rx="6"/>
        <rect x="75" y="120" width="40" height="40" rx="6"/>
        <rect x="125" y="120" width="40" height="40" rx="6"/>
        <rect x="175" y="120" width="40" height="40" rx="6"/>
      </g>
      <text x="40" y="92" font-size="13" fill="#0f172a">t0</text>
      <text x="90" y="92" font-size="13" fill="#0f172a">t1</text>
      <text x="140" y="92" font-size="13" fill="#0f172a">t2</text>
      <text x="190" y="92" font-size="13" fill="#0f172a">t3</text>
    </g>

    <g transform="translate(740,180)">
      <rect width="240" height="210" rx="18" fill="#fee2e2" stroke="#dc2626" stroke-width="3"/>
      <text x="25" y="35" font-size="22" font-weight="700" fill="#b91c1c">Bloque 2</text>
      <g fill="#ffffff" stroke="#dc2626">
        <rect x="25" y="65" width="40" height="40" rx="6"/>
        <rect x="75" y="65" width="40" height="40" rx="6"/>
        <rect x="125" y="65" width="40" height="40" rx="6"/>
        <rect x="175" y="65" width="40" height="40" rx="6"/>
        <rect x="25" y="120" width="40" height="40" rx="6"/>
        <rect x="75" y="120" width="40" height="40" rx="6"/>
        <rect x="125" y="120" width="40" height="40" rx="6"/>
        <rect x="175" y="120" width="40" height="40" rx="6"/>
      </g>
      <text x="40" y="92" font-size="13" fill="#0f172a">t0</text>
      <text x="90" y="92" font-size="13" fill="#0f172a">t1</text>
      <text x="140" y="92" font-size="13" fill="#0f172a">t2</text>
      <text x="190" y="92" font-size="13" fill="#0f172a">t3</text>
    </g>
  </g>

  <text x="90" y="525" font-family="monospace" font-size="24" fill="#0f172a">
    indice_global = blockIdx.x * blockDim.x + threadIdx.x
  </text>
</svg>
