<svg xmlns="http://www.w3.org/2000/svg" viewBox="0 0 1000 520" role="img" aria-label="Suma de tres arreglos y reducción">
  <defs>
    <style>
      .bg { fill:#fbfdff }
      .title { font-family:'Segoe UI', Arial, sans-serif; font-size:34px; font-weight:700; fill:#0f172a }
      .label { font-family:'Segoe UI', Arial, sans-serif; font-size:20px; font-weight:600 }
      .mono { font-family:monospace; font-size:18px; fill:#0f172a }
      .box-A { fill:#dbeafe; stroke:#2563eb }
      .box-B { fill:#dcfce7; stroke:#16a34a }
      .box-C { fill:#fee2e2; stroke:#dc2626 }
      .box-R { fill:#ede9fe; stroke:#7c3aed }
      .arrow { stroke:#334155; stroke-width:4 }
    </style>

    <marker id="arrow" markerWidth="14" markerHeight="14" refX="12" refY="7" orient="auto">
      <path d="M2,2 L12,7 L2,12 Z" fill="#334155"/>
    </marker>
  </defs>

  <rect width="1000" height="520" rx="24" class="bg"/>
  <text x="50" y="55" class="title">Ejercicio 1: Suma de tres arreglos</text>

  <g class="label">
    <text x="80" y="130" fill="#2563eb">A[i]</text>
    <text x="80" y="210" fill="#16a34a">B[i]</text>
    <text x="80" y="290" fill="#dc2626">C[i]</text>
  </g>

  <g>
    <rect x="140" y="100" width="60" height="45" rx="8" class="box-A"/>
    <rect x="205" y="100" width="60" height="45" rx="8" class="box-A"/>
    <rect x="270" y="100" width="60" height="45" rx="8" class="box-A"/>
    <rect x="335" y="100" width="60" height="45" rx="8" class="box-A"/>
    <text x="160" y="130" class="mono">0</text>
    <text x="225" y="130" class="mono">1</text>
    <text x="290" y="130" class="mono">2</text>
    <text x="355" y="130" class="mono">3</text>
  </g>

  <g>
    <rect x="140" y="180" width="60" height="45" rx="8" class="box-B"/>
    <rect x="205" y="180" width="60" height="45" rx="8" class="box-B"/>
    <rect x="270" y="180" width="60" height="45" rx="8" class="box-B"/>
    <rect x="335" y="180" width="60" height="45" rx="8" class="box-B"/>
    <text x="160" y="210" class="mono">0</text>
    <text x="225" y="210" class="mono">2</text>
    <text x="290" y="210" class="mono">4</text>
    <text x="355" y="210" class="mono">6</text>
  </g>

  <g>
    <rect x="140" y="260" width="60" height="45" rx="8" class="box-C"/>
    <rect x="205" y="260" width="60" height="45" rx="8" class="box-C"/>
    <rect x="270" y="260" width="60" height="45" rx="8" class="box-C"/>
    <rect x="335" y="260" width="60" height="45" rx="8" class="box-C"/>
    <text x="160" y="290" class="mono">0</text>
    <text x="225" y="290" class="mono">3</text>
    <text x="290" y="290" class="mono">6</text>
    <text x="355" y="290" class="mono">9</text>
  </g>

  <path d="M430 205 H560" class="arrow" marker-end="url(#arrow)"/>
  <text x="445" y="185" font-family="monospace" font-size="24" fill="#0f172a">R[i] = A[i] + B[i] + C[i]</text>

  <g>
    <text x="610" y="130" font-family="Segoe UI, Arial" font-size="20" font-weight="700" fill="#7c3aed">R[i]</text>
    <rect x="670" y="100" width="60" height="45" rx="8" class="box-R"/>
    <rect x="735" y="100" width="60" height="45" rx="8" class="box-R"/>
    <rect x="800" y="100" width="60" height="45" rx="8" class="box-R"/>
    <rect x="865" y="100" width="60" height="45" rx="8" class="box-R"/>
    <text x="690" y="130" class="mono">0</text>
    <text x="755" y="130" class="mono">6</text>
    <text x="817" y="130" class="mono">12</text>
    <text x="882" y="130" class="mono">18</text>
  </g>

  <path d="M800 160 V260" class="arrow" marker-end="url(#arrow)"/>
  <rect x="620" y="285" width="320" height="120" rx="18" fill="#fff7ed" stroke="#f97316" stroke-width="3"/>
  <text x="650" y="335" font-family="Segoe UI, Arial" font-size="26" font-weight="700" fill="#9a3412">Reducción</text>
  <text x="650" y="375" font-family="monospace" font-size="24" fill="#0f172a">total = Σ R[i]</text>

  <text x="70" y="445" font-family="monospace" font-size="22" fill="#334155">Kernel: SumVector&lt;&lt;&lt;1, 1000&gt;&gt;&gt;(A, B, C, R, N)</text>
</svg>
